<svg width="126" height="40" viewBox="0 0 126 40" fill="none" xmlns="http://www.w3.org/2000/svg">
<g id="Airbnb_logo 2" clip-path="url(#clip0_17602_150)">
<path id="logo 1" d="M66.8562 10.4552C66.8562 11.8406 65.7083 12.974 64.3052 12.974C62.9021 12.974 61.7542 11.8406 61.7542 10.4552C61.7542 9.06988 62.8384 7.93643 64.3052 7.93643C65.772 7.96791 66.8562 9.10137 66.8562 10.4552ZM56.397 15.4928C56.397 15.7132 56.397 16.1225 56.397 16.1225C56.397 16.1225 55.1853 14.5797 52.6024 14.5797C48.3613 14.5797 45.0131 17.7912 45.0131 22.1991C45.0131 26.607 48.2975 29.8185 52.6024 29.8185C55.2172 29.8185 56.397 28.2442 56.397 28.2442V28.9054C56.397 29.2202 56.6202 29.4406 56.9391 29.4406H60.096V14.9576C60.096 14.9576 57.1942 14.9576 56.9391 14.9576C56.6202 14.9576 56.397 15.2409 56.397 15.4928ZM56.397 24.7809C55.8231 25.631 54.6432 26.3551 53.2401 26.3551C50.7529 26.3551 48.8396 24.8123 48.8396 22.1991C48.8396 19.5858 50.7529 18.0431 53.2401 18.0431C54.6113 18.0431 55.8549 18.7987 56.397 19.6173V24.7809ZM62.4557 14.9576H66.2185V29.4406H62.4557V14.9576ZM118.419 14.5797C115.836 14.5797 114.624 16.1225 114.624 16.1225V7.9994H110.861V29.4721C110.861 29.4721 113.763 29.4721 114.018 29.4721C114.337 29.4721 114.56 29.1888 114.56 28.9369V28.2757C114.56 28.2757 115.772 29.8499 118.355 29.8499C122.596 29.8499 125.944 26.607 125.944 22.2306C125.976 17.8227 122.628 14.5797 118.419 14.5797ZM117.813 26.3236C116.378 26.3236 115.23 25.5995 114.656 24.7494V19.5859C115.23 18.8302 116.505 18.0116 117.813 18.0116C120.3 18.0116 122.213 19.5544 122.213 22.1676C122.213 24.7809 120.3 26.3236 117.813 26.3236ZM108.948 20.8452V29.4721H105.185V21.286C105.185 18.8932 104.42 17.9172 102.284 17.9172C101.136 17.9172 99.9876 18.4839 99.2542 19.334V29.4406H95.4914V14.9576H98.457C98.7759 14.9576 98.9991 15.2409 98.9991 15.4928V16.1225C100.083 14.9891 101.55 14.5797 102.985 14.5797C104.611 14.5797 105.982 15.052 107.099 15.9651C108.438 17.0356 108.948 18.4209 108.948 20.8452ZM86.4034 14.5797C83.8205 14.5797 82.6088 16.1225 82.6088 16.1225V7.9994H78.846V29.4721C78.846 29.4721 81.7478 29.4721 82.0029 29.4721C82.3218 29.4721 82.545 29.1888 82.545 28.9369V28.2757C82.545 28.2757 83.7567 29.8499 86.3396 29.8499C90.5807 29.8499 93.9289 26.607 93.9289 22.2306C93.9927 17.8227 90.6764 14.5797 86.4034 14.5797ZM85.7975 26.3236C84.3626 26.3236 83.2146 25.5995 82.6407 24.7494V19.5859C83.2146 18.8302 84.4901 18.0116 85.7975 18.0116C88.2848 18.0116 90.198 19.5544 90.198 22.1676C90.198 24.7809 88.2848 26.3236 85.7975 26.3236ZM75.6253 14.5797C76.7733 14.5797 77.3473 14.7687 77.3473 14.7687V18.2005C77.3473 18.2005 74.2223 17.1615 72.2771 19.3655V29.5036H68.5144V14.9576C68.5144 14.9576 71.4162 14.9576 71.6713 14.9576C71.9901 14.9576 72.2134 15.2409 72.2134 15.4928V16.1225C72.9468 15.3039 74.4774 14.5797 75.6253 14.5797ZM36.7223 28.1498C36.531 27.6775 36.3396 27.1737 36.1483 26.7644C35.8294 26.0717 35.5105 25.4106 35.2554 24.8123L35.2236 24.7809C32.545 18.9876 29.6432 13.1314 26.582 7.3697L26.4544 7.1493C26.1355 6.58257 25.8167 5.95288 25.5297 5.32318C25.147 4.63051 24.7644 3.90635 24.1266 3.21369C22.883 1.67092 21.0973 0.820831 19.184 0.820831C17.2389 0.820831 15.485 1.67093 14.1776 3.11923C13.6037 3.8119 13.1572 4.53605 12.7746 5.22872C12.4557 5.85842 12.1368 6.45664 11.8498 7.05485L11.7223 7.27524C8.72483 13.0685 5.79116 18.9247 3.0807 24.6864L3.04881 24.7494C2.76182 25.3791 2.47483 26.0088 2.15596 26.7014C1.96463 27.1107 1.7733 27.583 1.58198 28.0868C1.07177 29.5036 0.912334 30.8575 1.10366 32.2428C1.5182 35.1394 3.49524 37.5637 6.17381 38.6342C7.19422 39.0435 8.24652 39.2639 9.3307 39.2639C9.64958 39.2639 10.0322 39.2324 10.3511 39.201C11.6266 39.0435 12.9659 38.6342 14.2414 37.8786C15.8358 36.997 17.3664 35.7061 19.0884 33.88C20.8103 35.7376 22.3728 36.997 23.9353 37.8786C25.2108 38.6027 26.5501 39.0435 27.8256 39.201C28.1445 39.2324 28.5271 39.2639 28.846 39.2639C29.9302 39.2639 31.0463 39.075 32.0029 38.6342C34.7452 37.5637 36.6585 35.0764 37.073 32.2428C37.3919 30.9204 37.2325 29.5666 36.7223 28.1498ZM19.1202 30.1333C17.0157 27.5201 15.6445 25.0327 15.1662 22.9547C14.9748 22.0732 14.9429 21.286 15.0386 20.5934C15.1024 19.9637 15.3575 19.4284 15.6764 18.9876C16.4098 17.9486 17.6534 17.2875 19.1202 17.2875C20.5871 17.2875 21.8626 17.9171 22.5641 18.9876C22.883 19.4599 23.1062 19.9952 23.2019 20.5934C23.3294 21.286 23.2657 22.1046 23.0743 22.9547C22.596 25.0327 21.2248 27.4886 19.1202 30.1333ZM34.6815 31.9594C34.3945 33.9745 33.0552 35.7061 31.1419 36.4618C30.2172 36.8396 29.1968 36.9655 28.1764 36.8396C27.1878 36.7137 26.2312 36.4303 25.2108 35.8321C23.8077 35.0764 22.4047 33.88 20.7465 32.0854C23.3294 28.9684 24.8919 26.1032 25.4659 23.553C25.7529 22.3565 25.7848 21.286 25.6572 20.2785C25.4978 19.3025 25.147 18.4209 24.6049 17.6653C23.3932 15.9336 21.3524 14.9261 19.0884 14.9261C16.8243 14.9261 14.7835 15.9651 13.5718 17.6653C13.0297 18.4209 12.6789 19.334 12.5195 20.2785C12.36 21.286 12.3919 22.388 12.7108 23.553C13.2848 26.1032 14.9111 28.9998 17.4302 32.1169C15.8358 33.88 14.4009 35.0764 12.9659 35.8636C11.9455 36.4303 10.9889 36.7451 10.0003 36.8711C8.94805 36.997 7.92764 36.8396 7.03478 36.4933C5.12152 35.7376 3.75034 33.9745 3.49524 31.9909C3.36769 31.0149 3.46335 30.0703 3.84601 28.9998C3.97356 28.622 4.16489 28.2442 4.35621 27.7719C4.6432 27.1422 4.93019 26.5125 5.24907 25.8514L5.28096 25.7884C7.95953 20.0581 10.8613 14.1704 13.8588 8.47167L13.9863 8.25127C14.3052 7.68455 14.6241 7.05485 14.9111 6.48812C15.2299 5.85842 15.5807 5.29169 15.9952 4.78793C16.8243 3.87487 17.9085 3.37111 19.1202 3.37111C20.332 3.37111 21.4162 3.87487 22.2452 4.78793C22.6598 5.29169 23.0105 5.85842 23.3294 6.48812C23.6483 7.05485 23.9672 7.68455 24.2542 8.25127L24.3817 8.47167C27.3473 14.2019 30.2491 20.0896 32.9276 25.8199V25.8514C33.2465 26.4811 33.5016 27.1737 33.8205 27.7719C34.0118 28.2442 34.2031 28.622 34.3307 28.9998C34.7134 29.9759 34.8409 30.9519 34.6815 31.9594Z" fill="#244D4D"/>
</g>
<defs>
<clipPath id="clip0_17602_150">
<rect width="125" height="39" fill="white" transform="translate(0.976562 0.486084)"/>
</clipPath>
</defs>
</svg>
