<svg width="25" height="25" viewBox="0 0 25 25" fill="none" xmlns="http://www.w3.org/2000/svg">
<g id="bed (1) 1" clip-path="url(#clip0_17672_252)">
<g id="Group">
<path id="Vector" d="M2.45763 13.5139H22.4742C23.2992 13.5139 23.968 12.8451 23.968 12.0201C23.968 11.1951 23.2992 10.5264 22.4742 10.5264H2.45763C1.63263 10.5264 0.963867 11.1951 0.963867 12.0201C0.96382 12.8451 1.63263 13.5139 2.45763 13.5139Z" fill="#666666"/>
<path id="Vector_2" d="M13.9596 7.30432C13.5236 7.30432 13.1689 7.65898 13.1689 8.09496V9.11998H19.288V8.09496C19.288 7.65898 18.9333 7.30432 18.4973 7.30432H13.9596Z" fill="#666666"/>
<path id="Vector_3" d="M4.23733 8.09508C4.23733 6.88369 5.22283 5.89819 6.43422 5.89819H10.972C11.5484 5.89819 12.0734 6.12169 12.4657 6.48619C12.858 6.12169 13.383 5.89819 13.9595 5.89819H18.4972C19.7086 5.89819 20.6941 6.88369 20.6941 8.09508V9.12009H22.9764V4.27697C22.9764 3.45197 22.3076 2.7832 21.4826 2.7832H3.44884C2.62384 2.7832 1.95508 3.45197 1.95508 4.27697V9.12009H4.23733V8.09508Z" fill="#666666"/>
<path id="Vector_4" d="M6.4342 7.30432C5.99821 7.30432 5.64355 7.65898 5.64355 8.09496V9.11998H11.7626V8.09496C11.7626 7.65898 11.4079 7.30432 10.9719 7.30432H6.4342Z" fill="#666666"/>
<path id="Vector_5" d="M0.46582 14.92V21.3896H1.87207V18.8257H23.0596V21.3896H24.4658V14.92H0.46582Z" fill="#666666"/>
</g>
</g>
<defs>
<clipPath id="clip0_17672_252">
<rect width="24" height="24" fill="white" transform="translate(0.46582 0.0864258)"/>
</clipPath>
</defs>
</svg>
