<svg width="17" height="17" viewBox="0 0 17 17" fill="none" xmlns="http://www.w3.org/2000/svg">
<rect width="17" height="17" fill="#D6D6D6"/>
<g id="Moder Furniture website" clip-path="url(#clip0_0_1)">
<rect width="1440" height="4893" transform="translate(-502 -4214)" fill="#FCFBFF"/>
<g id="Frame 98">
<rect id="Rectangle 60" x="-382" y="-297.124" width="1200" height="394.32" fill="#F4F6F6"/>
<g id="Frame 96">
<rect id="Rectangle 61" x="-17.498" y="-25.1238" width="471.979" height="67" fill="white"/>
<g id="Frame 48">
<g id="Group 16">
<g id="email 1" clip-path="url(#clip1_0_1)">
<g id="Group">
<g id="Group_2">
<path id="Vector" d="M10.623 8.44853L16.017 11.8585V4.89453L10.623 8.44853Z" fill="#7F7F7F"/>
</g>
</g>
<g id="Group_3">
<g id="Group_4">
<path id="Vector_2" d="M0.0175781 4.89453V11.8585L5.41158 8.44853L0.0175781 4.89453Z" fill="#7F7F7F"/>
</g>
</g>
<g id="Group_5">
<g id="Group_6">
<path id="Vector_3" d="M15.0179 2.86646H1.01785C0.518852 2.86646 0.122852 3.23846 0.0478516 3.71746L8.01785 8.96846L15.9879 3.71746C15.9129 3.23846 15.5169 2.86646 15.0179 2.86646Z" fill="#7F7F7F"/>
</g>
</g>
<g id="Group_7">
<g id="Group_8">
<path id="Vector_4" d="M9.7078 9.05251L8.2928 9.98451C8.20881 10.0395 8.1138 10.0665 8.0178 10.0665C7.9218 10.0665 7.8268 10.0395 7.7428 9.98451L6.3278 9.05151L0.0498047 13.0225C0.126805 13.4975 0.520805 13.8665 1.0178 13.8665H15.0178C15.5148 13.8665 15.9088 13.4975 15.9858 13.0225L9.7078 9.05251Z" fill="#7F7F7F"/>
</g>
</g>
</g>
</g>
</g>
</g>
</g>
</g>
<defs>
<clipPath id="clip0_0_1">
<rect width="1440" height="4893" fill="white" transform="translate(-502 -4214)"/>
</clipPath>
<clipPath id="clip1_0_1">
<rect width="16" height="16" fill="white" transform="translate(0.0175781 0.366455)"/>
</clipPath>
</defs>
</svg>
