<svg width="27" height="27" viewBox="0 0 27 27" fill="none" xmlns="http://www.w3.org/2000/svg">
<circle cx="13.9414" cy="13.6183" r="13" fill="#ECF4FF"/>
<g clip-path="url(#clip0_17671_88)">
<path d="M13.9414 18.0619C13.799 18.0619 13.6618 18.0104 13.5548 17.9167C13.1508 17.5634 12.7614 17.2315 12.4177 16.9387L12.416 16.9371C11.4085 16.0786 10.5385 15.3372 9.93323 14.6068C9.25658 13.7903 8.94141 13.0162 8.94141 12.1705C8.94141 11.3488 9.22316 10.5907 9.73471 10.0358C10.2524 9.47438 10.9627 9.16516 11.735 9.16516C12.3122 9.16516 12.8409 9.34766 13.3062 9.70753C13.541 9.88919 13.7539 10.1115 13.9414 10.3708C14.129 10.1115 14.3418 9.88919 14.5767 9.70753C15.042 9.34766 15.5707 9.16516 16.1479 9.16516C16.9201 9.16516 17.6305 9.47438 18.1482 10.0358C18.6597 10.5907 18.9414 11.3488 18.9414 12.1705C18.9414 13.0162 18.6263 13.7903 17.9496 14.6067C17.3443 15.3372 16.4744 16.0785 15.4671 16.937C15.1229 17.2303 14.7328 17.5627 14.3279 17.9168C14.221 18.0104 14.0837 18.0619 13.9414 18.0619ZM11.735 9.75094C11.1282 9.75094 10.5708 9.9931 10.1653 10.4329C9.75378 10.8793 9.52711 11.4963 9.52711 12.1705C9.52711 12.8817 9.79147 13.5179 10.3842 14.2331C10.9571 14.9244 11.8092 15.6505 12.7958 16.4913L12.7977 16.4929C13.1426 16.7868 13.5336 17.1201 13.9406 17.4759C14.3499 17.1194 14.7416 16.7856 15.0872 16.4912C16.0737 15.6504 16.9258 14.9244 17.4987 14.2331C18.0913 13.5179 18.3557 12.8817 18.3557 12.1705C18.3557 11.4963 18.129 10.8793 17.7175 10.4329C17.3121 9.9931 16.7546 9.75094 16.1479 9.75094C15.7034 9.75094 15.2953 9.89224 14.935 10.1709C14.6139 10.4193 14.3902 10.7333 14.259 10.953C14.1916 11.066 14.0729 11.1335 13.9414 11.1335C13.8099 11.1335 13.6912 11.066 13.6238 10.953C13.4927 10.7333 13.269 10.4193 12.9478 10.1709C12.5875 9.89224 12.1794 9.75094 11.735 9.75094Z" fill="black"/>
</g>
<defs>
<clipPath id="clip0_17671_88">
<rect width="10" height="9.99998" fill="white" transform="translate(8.94141 8.61829)"/>
</clipPath>
</defs>
</svg>
