<svg width="27" height="27" viewBox="0 0 27 27" fill="none" xmlns="http://www.w3.org/2000/svg">
<circle cx="13.9414" cy="13.6183" r="13" fill="#ECF4FF"/>
<g clip-path="url(#clip0_17628_72)">
<path d="M16.8711 15.1027C16.2923 15.1027 15.7779 15.384 15.4575 15.8169L12.6983 14.4069C12.7446 14.2496 12.7695 14.0833 12.7695 13.9113C12.7695 13.6782 12.7238 13.4557 12.6411 13.252L15.5329 11.5146C15.8556 11.8933 16.3357 12.1339 16.8711 12.1339C17.8404 12.1339 18.6289 11.3454 18.6289 10.3761C18.6289 9.40684 17.8404 8.61829 16.8711 8.61829C15.9018 8.61829 15.1133 9.40684 15.1133 10.3761C15.1133 10.6001 15.1555 10.8144 15.2322 11.0116L12.3332 12.7534C12.0108 12.3859 11.5379 12.1534 11.0117 12.1534C10.0425 12.1534 9.25391 12.942 9.25391 13.9113C9.25391 14.8805 10.0425 15.6691 11.0117 15.6691C11.6 15.6691 12.1217 15.3785 12.441 14.9334L15.1921 16.3394C15.1409 16.5041 15.1133 16.6791 15.1133 16.8605C15.1133 17.8297 15.9018 18.6183 16.8711 18.6183C17.8404 18.6183 18.6289 17.8297 18.6289 16.8605C18.6289 15.8912 17.8404 15.1027 16.8711 15.1027ZM16.8711 9.20422C17.5173 9.20422 18.043 9.72993 18.043 10.3761C18.043 11.0223 17.5173 11.548 16.8711 11.548C16.2249 11.548 15.6992 11.0223 15.6992 10.3761C15.6992 9.72993 16.2249 9.20422 16.8711 9.20422ZM11.0117 15.0831C10.3655 15.0831 9.83984 14.5574 9.83984 13.9113C9.83984 13.2651 10.3655 12.7394 11.0117 12.7394C11.6579 12.7394 12.1836 13.2651 12.1836 13.9113C12.1836 14.5574 11.6579 15.0831 11.0117 15.0831ZM16.8711 18.0323C16.2249 18.0323 15.6992 17.5066 15.6992 16.8605C15.6992 16.2143 16.2249 15.6886 16.8711 15.6886C17.5173 15.6886 18.043 16.2143 18.043 16.8605C18.043 17.5066 17.5173 18.0323 16.8711 18.0323Z" fill="black"/>
</g>
<defs>
<clipPath id="clip0_17628_72">
<rect width="10" height="10" fill="white" transform="translate(8.94141 8.61829)"/>
</clipPath>
</defs>
</svg>
