<svg width="67" height="52" viewBox="0 0 67 52" fill="none" xmlns="http://www.w3.org/2000/svg">
<path d="M12.1868 51.8571V48.4077C12.1868 47.0854 11.3819 46.223 10.0021 46.223C9.31221 46.223 8.56483 46.453 8.04741 47.2003C7.64497 46.5679 7.07005 46.223 6.20769 46.223C5.63278 46.223 5.05787 46.3955 4.59794 47.0279V46.338H3.39062V51.8571H4.59794V48.8101C4.59794 47.8327 5.11536 47.3728 5.92023 47.3728C6.72511 47.3728 7.12755 47.8902 7.12755 48.8101V51.8571H8.33487V48.8101C8.33487 47.8327 8.90977 47.3728 9.65715 47.3728C10.462 47.3728 10.8645 47.8902 10.8645 48.8101V51.8571H12.1868V51.8571ZM30.0665 46.338H28.1118V44.6707H26.9045V46.338H25.8122V47.4303H26.9045V49.9599C26.9045 51.2247 27.4219 51.9721 28.8017 51.9721C29.3191 51.9721 29.894 51.7996 30.2965 51.5697L29.9515 50.5348C29.6066 50.7648 29.2041 50.8223 28.9167 50.8223C28.3418 50.8223 28.1118 50.4773 28.1118 49.9024V47.4303H30.0665V46.338V46.338ZM40.2999 46.223C39.61 46.223 39.1501 46.5679 38.8626 47.0279V46.338H37.6553V51.8571H38.8626V48.7526C38.8626 47.8328 39.2651 47.3153 40.0125 47.3153C40.2424 47.3153 40.5299 47.3728 40.7599 47.4303L41.1048 46.2805C40.8748 46.223 40.5299 46.223 40.2999 46.223V46.223ZM24.8348 46.7979C24.2599 46.3955 23.455 46.223 22.5927 46.223C21.2129 46.223 20.293 46.9129 20.293 48.0052C20.293 48.9251 20.9829 49.4425 22.1902 49.615L22.7651 49.6725C23.3975 49.7874 23.7425 49.9599 23.7425 50.2474C23.7425 50.6498 23.2825 50.9373 22.4777 50.9373C21.6728 50.9373 21.0404 50.6498 20.638 50.3624L20.0631 51.2822C20.6955 51.7421 21.5578 51.9721 22.4202 51.9721C24.0299 51.9721 24.9498 51.2247 24.9498 50.1899C24.9498 49.2125 24.2024 48.6951 23.0526 48.5226L22.4777 48.4652C21.9602 48.4077 21.5578 48.2927 21.5578 47.9477C21.5578 47.5453 21.9603 47.3153 22.5927 47.3153C23.2826 47.3153 23.9724 47.6028 24.3174 47.7753L24.8348 46.7979V46.7979ZM56.9149 46.223C56.225 46.223 55.765 46.5679 55.4776 47.0279V46.338H54.2703V51.8571H55.4776V48.7526C55.4776 47.8328 55.88 47.3153 56.6274 47.3153C56.8574 47.3153 57.1448 47.3728 57.3748 47.4303L57.7197 46.2805C57.4898 46.223 57.1448 46.223 56.9149 46.223V46.223ZM41.5072 49.0975C41.5072 50.7648 42.6571 51.9721 44.4393 51.9721C45.2442 51.9721 45.8191 51.7996 46.394 51.3397L45.8191 50.3624C45.3591 50.7073 44.8992 50.8798 44.3818 50.8798C43.4044 50.8798 42.7146 50.1899 42.7146 49.0975C42.7146 48.0627 43.4044 47.3728 44.3818 47.3153C44.8992 47.3153 45.3591 47.4878 45.8191 47.8327L46.394 46.8554C45.8191 46.3955 45.2442 46.223 44.4393 46.223C42.6571 46.223 41.5072 47.4303 41.5072 49.0975V49.0975ZM52.6605 49.0975V46.338H51.4532V47.0279C51.0508 46.5105 50.4759 46.223 49.7285 46.223C48.1762 46.223 46.9689 47.4303 46.9689 49.0975C46.9689 50.7648 48.1762 51.9721 49.7285 51.9721C50.5333 51.9721 51.1083 51.6846 51.4532 51.1672V51.8571H52.6605V49.0975ZM48.2337 49.0975C48.2337 48.1202 48.8661 47.3153 49.9009 47.3153C50.8783 47.3153 51.5682 48.0627 51.5682 49.0975C51.5682 50.0749 50.8783 50.8798 49.9009 50.8798C48.8661 50.8223 48.2337 50.0749 48.2337 49.0975ZM33.8034 46.223C32.1937 46.223 31.0439 47.3728 31.0439 49.0975C31.0439 50.8223 32.1937 51.9721 33.8609 51.9721C34.6658 51.9721 35.4707 51.7421 36.1031 51.2247L35.5282 50.3624C35.0682 50.7073 34.4933 50.9373 33.9184 50.9373C33.171 50.9373 32.4236 50.5923 32.2512 49.615H36.333C36.333 49.4425 36.333 49.3275 36.333 49.155C36.3905 47.3728 35.3557 46.223 33.8034 46.223V46.223ZM33.8034 47.2578C34.5508 47.2578 35.0682 47.7178 35.1832 48.5801H32.3087C32.4236 47.8327 32.9411 47.2578 33.8034 47.2578ZM63.7563 49.0975V44.1533H62.549V47.0279C62.1465 46.5105 61.5716 46.223 60.8243 46.223C59.272 46.223 58.0647 47.4303 58.0647 49.0975C58.0647 50.7648 59.272 51.9721 60.8243 51.9721C61.6291 51.9721 62.204 51.6846 62.549 51.1672V51.8571H63.7563V49.0975ZM59.3295 49.0975C59.3295 48.1202 59.9619 47.3153 60.9967 47.3153C61.9741 47.3153 62.664 48.0627 62.664 49.0975C62.664 50.0749 61.9741 50.8798 60.9967 50.8798C59.9619 50.8223 59.3295 50.0749 59.3295 49.0975ZM18.9707 49.0975V46.338H17.7634V47.0279C17.361 46.5105 16.7861 46.223 16.0387 46.223C14.4864 46.223 13.2791 47.4303 13.2791 49.0975C13.2791 50.7648 14.4864 51.9721 16.0387 51.9721C16.8435 51.9721 17.4185 51.6846 17.7634 51.1672V51.8571H18.9707V49.0975ZM14.4864 49.0975C14.4864 48.1202 15.1188 47.3153 16.1536 47.3153C17.131 47.3153 17.8209 48.0627 17.8209 49.0975C17.8209 50.0749 17.131 50.8798 16.1536 50.8798C15.1188 50.8223 14.4864 50.0749 14.4864 49.0975Z" fill="black"/>
<path d="M42.5413 4.42676H24.4316V36.9667H42.5413V4.42676Z" fill="#FF5F00"/>
<path d="M25.5826 20.6968C25.5826 14.0853 28.6871 8.22124 33.4589 4.42682C29.9519 1.66725 25.5251 0 20.6958 0C9.2551 0 -0.000976562 9.25607 -0.000976562 20.6968C-0.000976562 32.1375 9.2551 41.3936 20.6958 41.3936C25.5251 41.3936 29.9519 39.7264 33.4589 36.9668C28.6871 33.2299 25.5826 27.3083 25.5826 20.6968Z" fill="#EB001B"/>
<path d="M66.9764 20.6968C66.9764 32.1375 57.7204 41.3936 46.2796 41.3936C41.4504 41.3936 37.0236 39.7264 33.5166 36.9668C38.3459 33.1724 41.3929 27.3083 41.3929 20.6968C41.3929 14.0853 38.2884 8.22124 33.5166 4.42682C37.0236 1.66725 41.4504 0 46.2796 0C57.7204 0 66.9764 9.31356 66.9764 20.6968Z" fill="#F79E1B"/>
</svg>
