<svg width="107" height="38" viewBox="0 0 107 38" fill="none" xmlns="http://www.w3.org/2000/svg">
<g id="Frame 14">
<g id="Group 8908">
<g id="g10">
<g id="g12">
<path id="path14" d="M13.0507 0.29419H4.76953C4.20275 0.29419 3.72085 0.836859 3.63243 1.57429L0.28311 29.5572C0.216495 30.1091 0.541084 30.6071 0.96604 30.6071H4.91963C5.48631 30.6071 5.9682 30.0646 6.05663 29.3258L6.95993 21.7785C7.04717 21.0395 7.53025 20.497 8.09575 20.497H10.7173C16.1724 20.497 19.3207 17.0184 20.143 10.1252C20.5134 7.10938 20.1586 4.73989 19.087 3.08043C17.91 1.25801 15.8224 0.29419 13.0507 0.29419V0.29419ZM14.0062 10.5146C13.5533 14.4303 11.2828 14.4303 9.08748 14.4303H7.83787L8.71453 7.11747C8.76665 6.67541 9.05719 6.34991 9.39629 6.34991H9.96898C11.4644 6.34991 12.8752 6.34991 13.6041 7.47313C14.0388 8.14341 14.1721 9.13905 14.0062 10.5146Z" fill="#283B82"/>
<path id="path16" d="M37.8043 10.3884H33.8388C33.501 10.3884 33.2092 10.7139 33.1569 11.156L32.9816 12.6176L32.7042 12.0877C31.8457 10.4458 29.9312 9.89697 28.0204 9.89697C23.6383 9.89697 19.8954 14.2706 19.1665 20.4059C18.7875 23.4664 19.3263 26.3929 20.6438 28.4336C21.8522 30.31 23.5813 31.0919 25.6387 31.0919C29.1697 31.0919 31.1277 28.1003 31.1277 28.1003L30.9508 29.5523C30.8841 30.1076 31.2088 30.6054 31.6315 30.6054H35.2033C35.7713 30.6054 36.2508 30.0628 36.3405 29.3242L38.4837 11.4383C38.5516 10.8878 38.2283 10.3884 37.8043 10.3884V10.3884ZM32.2767 20.5592C31.8942 23.5445 30.0959 25.5489 27.8026 25.5489C26.6511 25.5489 25.7307 25.0621 25.1397 24.1398C24.5537 23.2238 24.3309 21.9202 24.5174 20.4681C24.8746 17.5082 26.7031 15.4387 28.9613 15.4387C30.0876 15.4387 31.0029 15.9317 31.6059 16.8619C32.2103 17.8017 32.4498 19.1134 32.2767 20.5592Z" fill="#283B82"/>
<path id="path18" d="M58.9256 10.3884H54.9406C54.5604 10.3884 54.2032 10.6374 53.9876 11.0539L48.4914 21.7225L46.1617 11.4703C46.0152 10.8288 45.566 10.3884 45.0574 10.3884H41.1414C40.6654 10.3884 40.335 11.0011 40.4863 11.5915L44.8757 28.5661L40.749 36.2429C40.4244 36.8475 40.7513 37.6792 41.3122 37.6792H45.2924C45.6701 37.6792 46.0238 37.4365 46.238 37.028L59.4923 11.8166C59.8096 11.2133 59.4839 10.3884 58.9256 10.3884" fill="#283B82"/>
<path id="path20" d="M72.1191 0.29419H63.8366C63.2712 0.29419 62.7892 0.836859 62.7007 1.57429L59.3514 29.5572C59.285 30.1091 59.6094 30.6071 60.0321 30.6071H64.2823C64.6769 30.6071 65.015 30.2275 65.0766 29.7104L66.0271 21.7785C66.1142 21.0395 66.5975 20.497 67.1629 20.497H69.7834C75.2395 20.497 78.3867 17.0184 79.21 10.1252C79.5819 7.10938 79.2247 4.73989 78.153 3.08043C76.9772 1.25801 74.8908 0.29419 72.1191 0.29419V0.29419ZM73.0746 10.5146C72.6228 14.4303 70.3526 14.4303 68.1558 14.4303H66.9075L67.7855 7.11747C67.8375 6.67541 68.1255 6.34991 68.4658 6.34991H69.0386C70.533 6.34991 71.9447 6.34991 72.6736 7.47313C73.1084 8.14341 73.2403 9.13905 73.0746 10.5146Z" fill="#469BDB"/>
<path id="path22" d="M96.8726 10.3884H92.9094C92.5691 10.3884 92.2795 10.7139 92.2288 11.156L92.0532 12.6176L91.7748 12.0877C90.9163 10.4458 89.003 9.89697 87.0923 9.89697C82.7099 9.89697 78.9685 14.2706 78.2393 20.4059C77.8616 23.4664 78.398 26.3929 79.7155 28.4336C80.9265 30.31 82.653 31.0919 84.7103 31.0919C88.2413 31.0919 90.1993 28.1003 90.1993 28.1003L90.0224 29.5523C89.956 30.1076 90.2804 30.6054 90.7056 30.6054H94.2764C94.8419 30.6054 95.3239 30.0628 95.4123 29.3242L97.5568 11.4383C97.622 10.8878 97.2976 10.3884 96.8726 10.3884V10.3884ZM91.3448 20.5592C90.9645 23.5445 89.1639 25.5489 86.8707 25.5489C85.7214 25.5489 84.7987 25.0621 84.2078 24.1398C83.6219 23.2238 83.4014 21.9202 83.5856 20.4681C83.9451 17.5082 85.7712 15.4387 88.0296 15.4387C89.1556 15.4387 90.0709 15.9317 90.674 16.8619C91.2806 17.8017 91.5203 19.1134 91.3448 20.5592Z" fill="#469BDB"/>
<path id="path24" d="M101.547 1.0619L98.1483 29.5572C98.0819 30.1091 98.4063 30.6071 98.8289 30.6071H102.246C102.814 30.6071 103.296 30.0646 103.383 29.3258L106.735 1.34455C106.801 0.792233 106.477 0.292847 106.054 0.292847H102.228C101.89 0.294179 101.599 0.620111 101.547 1.0619" fill="#469BDB"/>
</g>
</g>
</g>
</g>
</svg>
