<svg width="40" height="41" viewBox="0 0 40 41" fill="none" xmlns="http://www.w3.org/2000/svg">
<circle cx="20" cy="20.7456" r="20" fill="#F4F6F6"/>
<g clip-path="url(#clip0_17628_132)">
<path d="M15.5546 21.3699L22.6748 28.49C22.8395 28.6548 23.0593 28.7456 23.2937 28.7456C23.5281 28.7456 23.7479 28.6548 23.9126 28.49L24.437 27.9658C24.7782 27.6242 24.7782 27.069 24.437 26.7279L18.458 20.7489L24.4436 14.7633C24.6083 14.5985 24.6992 14.3788 24.6992 14.1445C24.6992 13.91 24.6083 13.6902 24.4436 13.5253L23.9193 13.0012C23.7544 12.8364 23.5347 12.7456 23.3003 12.7456C23.0659 12.7456 22.8461 12.8364 22.6814 13.0012L15.5546 20.1278C15.3895 20.2931 15.2988 20.5139 15.2994 20.7485C15.2988 20.9841 15.3895 21.2047 15.5546 21.3699Z" fill="#D1CECE"/>
</g>
<defs>
<clipPath id="clip0_17628_132">
<rect width="16" height="16" fill="white" transform="matrix(-1 0 0 -1 28 28.7456)"/>
</clipPath>
</defs>
</svg>
