<svg width="40" height="41" viewBox="0 0 40 41" fill="none" xmlns="http://www.w3.org/2000/svg">
<circle cx="20" cy="20.7456" r="20" fill="#F4F6F6"/>
<g clip-path="url(#clip0_17628_125)">
<path d="M24.4454 20.1213L17.3252 13.0012C17.1605 12.8364 16.9407 12.7456 16.7063 12.7456C16.4719 12.7456 16.2521 12.8364 16.0874 13.0012L15.563 13.5254C15.2218 13.867 15.2218 14.4222 15.563 14.7633L21.542 20.7423L15.5564 26.7279C15.3917 26.8927 15.3008 27.1124 15.3008 27.3467C15.3008 27.5813 15.3917 27.801 15.5564 27.9659L16.0807 28.49C16.2456 28.6548 16.4653 28.7456 16.6997 28.7456C16.9341 28.7456 17.1539 28.6548 17.3186 28.49L24.4454 21.3634C24.6105 21.1981 24.7012 20.9773 24.7006 20.7427C24.7012 20.5071 24.6105 20.2865 24.4454 20.1213Z" fill="#666666"/>
</g>
<defs>
<clipPath id="clip0_17628_125">
<rect width="16" height="16" fill="white" transform="translate(12 12.7456)"/>
</clipPath>
</defs>
</svg>
