<svg width="25" height="25" viewBox="0 0 25 25" fill="none" xmlns="http://www.w3.org/2000/svg">
<g id="furniture (1) 1" clip-path="url(#clip0_17672_264)">
<path id="Vector" d="M24.0908 8.05127H0.84082C0.633362 8.05127 0.46582 7.88373 0.46582 7.67627V6.17554C0.46582 5.96808 0.633362 5.80054 0.84082 5.80054H24.0908C24.2983 5.80054 24.4658 5.96808 24.4658 6.17554V7.67627C24.4658 7.88373 24.2983 8.05127 24.0908 8.05127ZM1.21582 7.30127H23.7158V6.55054H1.21582V7.30127Z" fill="#666666"/>
<path id="Vector_2" d="M1.21582 19.6831C1.00836 19.6831 0.84082 19.5156 0.84082 19.3081V7.74316C0.84082 7.53571 1.00836 7.36816 1.21582 7.36816C1.42328 7.36816 1.59082 7.53571 1.59082 7.74316V19.3081C1.59082 19.5156 1.42328 19.6831 1.21582 19.6831Z" fill="#666666"/>
<path id="Vector_3" d="M2.34082 19.6831C2.13336 19.6831 1.96582 19.5156 1.96582 19.3081V7.74316C1.96582 7.53571 2.13336 7.36816 2.34082 7.36816C2.54828 7.36816 2.71582 7.53571 2.71582 7.74316V19.3081C2.71582 19.5156 2.54828 19.6831 2.34082 19.6831Z" fill="#666666"/>
<path id="Vector_4" d="M22.5908 19.6831C22.3834 19.6831 22.2158 19.5156 22.2158 19.3081V7.74316C22.2158 7.53571 22.3834 7.36816 22.5908 7.36816C22.7983 7.36816 22.9658 7.53571 22.9658 7.74316V19.3081C22.9658 19.5156 22.7983 19.6831 22.5908 19.6831Z" fill="#666666"/>
<path id="Vector_5" d="M23.7158 19.6831C23.5084 19.6831 23.3408 19.5156 23.3408 19.3081V7.74316C23.3408 7.53571 23.5084 7.36816 23.7158 7.36816C23.9233 7.36816 24.0908 7.53571 24.0908 7.74316V19.3081C24.0908 19.5156 23.9233 19.6831 23.7158 19.6831Z" fill="#666666"/>
<path id="Vector_6" d="M2.34082 19.6831H1.21582C1.00836 19.6831 0.84082 19.5156 0.84082 19.3081C0.84082 19.1006 1.00836 18.9331 1.21582 18.9331H2.34082C2.54828 18.9331 2.71582 19.1006 2.71582 19.3081C2.71582 19.5156 2.54828 19.6831 2.34082 19.6831Z" fill="#666666"/>
<path id="Vector_7" d="M23.7158 19.6831H22.5908C22.3834 19.6831 22.2158 19.5156 22.2158 19.3081C22.2158 19.1006 22.3834 18.9331 22.5908 18.9331H23.7158C23.9233 18.9331 24.0908 19.1006 24.0908 19.3081C24.0908 19.5156 23.9233 19.6831 23.7158 19.6831Z" fill="#666666"/>
<path id="Vector_8" d="M22.5908 13.3059H2.34082C2.13336 13.3059 1.96582 13.1382 1.96582 12.9309C1.96582 12.7234 2.13336 12.5559 2.34082 12.5559H22.5908C22.7983 12.5559 22.9658 12.7234 22.9658 12.9309C22.9658 13.1382 22.7983 13.3059 22.5908 13.3059Z" fill="#666666"/>
<path id="Vector_9" d="M22.5908 14.4316H2.34082C2.13336 14.4316 1.96582 14.2639 1.96582 14.0566C1.96582 13.8492 2.13336 13.6816 2.34082 13.6816H22.5908C22.7983 13.6816 22.9658 13.8492 22.9658 14.0566C22.9658 14.2639 22.7983 14.4316 22.5908 14.4316Z" fill="#666666"/>
<path id="Vector_10" d="M3.83984 13.3066C3.63239 13.3066 3.46484 13.1389 3.46484 12.9316C3.46484 11.8976 4.30566 11.0566 5.33948 11.0566C5.54675 11.0566 5.71448 11.2242 5.71448 11.4316C5.71448 11.6389 5.54675 11.8066 5.33948 11.8066C4.71967 11.8066 4.21484 12.3113 4.21484 12.9316C4.21484 13.1389 4.04712 13.3066 3.83984 13.3066Z" fill="#666666"/>
<path id="Vector_11" d="M7.59045 13.3066C7.383 13.3066 7.21545 13.1389 7.21545 12.9316C7.21545 12.3113 6.71063 11.8066 6.09082 11.8066C5.88354 11.8066 5.71582 11.6389 5.71582 11.4316C5.71582 11.2242 5.88354 11.0566 6.09082 11.0566C7.12463 11.0566 7.96545 11.8976 7.96545 12.9316C7.96545 13.1389 7.79791 13.3066 7.59045 13.3066Z" fill="#666666"/>
<path id="Vector_12" d="M4.21484 12.3148C4.00739 12.3148 3.83984 12.147 3.83984 11.9398V9.93164C3.83984 9.72418 4.00739 9.55664 4.21484 9.55664C4.42212 9.55664 4.58984 9.72418 4.58984 9.93164V11.9398C4.58984 12.147 4.42212 12.3148 4.21484 12.3148Z" fill="#666666"/>
<path id="Vector_13" d="M7.21484 12.3148C7.00739 12.3148 6.83984 12.147 6.83984 11.9398V9.93164C6.83984 9.72418 7.00739 9.55664 7.21484 9.55664C7.42212 9.55664 7.58984 9.72418 7.58984 9.93164V11.9398C7.58984 12.147 7.42212 12.3148 7.21484 12.3148Z" fill="#666666"/>
<path id="Vector_14" d="M4.96582 10.6824C4.75836 10.6824 4.59082 10.5146 4.59082 10.3074V9.18164C4.59082 8.97418 4.75836 8.80664 4.96582 8.80664C5.17328 8.80664 5.34082 8.97418 5.34082 9.18164V10.3074C5.34082 10.5146 5.17328 10.6824 4.96582 10.6824Z" fill="#666666"/>
<path id="Vector_15" d="M6.46582 9.55664H4.96582C4.75836 9.55664 4.59082 9.38892 4.59082 9.18164C4.59082 8.97418 4.75836 8.80664 4.96582 8.80664H6.46582C6.67328 8.80664 6.84082 8.97418 6.84082 9.18164C6.84082 9.38892 6.67328 9.55664 6.46582 9.55664Z" fill="#666666"/>
<path id="Vector_16" d="M6.46582 10.6824C6.25836 10.6824 6.09082 10.5146 6.09082 10.3074V9.18164C6.09082 8.97418 6.25836 8.80664 6.46582 8.80664C6.67328 8.80664 6.84082 8.97418 6.84082 9.18164V10.3074C6.84082 10.5146 6.67328 10.6824 6.46582 10.6824Z" fill="#666666"/>
<path id="Vector_17" d="M4.96558 10.3066H4.21484C4.00739 10.3066 3.83984 10.1389 3.83984 9.93164C3.83984 9.72418 4.00739 9.55664 4.21484 9.55664H4.96558C5.17303 9.55664 5.34058 9.72418 5.34058 9.93164C5.34058 10.1389 5.17303 10.3066 4.96558 10.3066Z" fill="#666666"/>
<path id="Vector_18" d="M7.21436 10.3066H6.46582C6.25836 10.3066 6.09082 10.1389 6.09082 9.93164C6.09082 9.72418 6.25836 9.55664 6.46582 9.55664H7.21436C7.42163 9.55664 7.58936 9.72418 7.58936 9.93164C7.58936 10.1389 7.42163 10.3066 7.21436 10.3066Z" fill="#666666"/>
<path id="Vector_19" d="M6.09131 11.8066H5.33984C5.13239 11.8066 4.96484 11.6389 4.96484 11.4316C4.96484 11.2242 5.13239 11.0566 5.33984 11.0566H6.09131C6.29877 11.0566 6.46631 11.2242 6.46631 11.4316C6.46631 11.6389 6.29877 11.8066 6.09131 11.8066Z" fill="#666666"/>
<path id="Vector_20" d="M8.71484 13.3066C8.50739 13.3066 8.33984 13.1389 8.33984 12.9316C8.33984 11.8976 9.18066 11.0566 10.2145 11.0566C10.4218 11.0566 10.5895 11.2242 10.5895 11.4316C10.5895 11.6389 10.4218 11.8066 10.2145 11.8066C9.59467 11.8066 9.08984 12.3113 9.08984 12.9316C9.08984 13.1389 8.92212 13.3066 8.71484 13.3066Z" fill="#666666"/>
<path id="Vector_21" d="M12.4655 13.3066C12.258 13.3066 12.0905 13.1389 12.0905 12.9316C12.0905 12.3113 11.5856 11.8066 10.9658 11.8066C10.7585 11.8066 10.5908 11.6389 10.5908 11.4316C10.5908 11.2242 10.7585 11.0566 10.9658 11.0566C11.9996 11.0566 12.8405 11.8976 12.8405 12.9316C12.8405 13.1389 12.6729 13.3066 12.4655 13.3066Z" fill="#666666"/>
<path id="Vector_22" d="M9.08984 12.3148C8.88239 12.3148 8.71484 12.147 8.71484 11.9398V9.93164C8.71484 9.72418 8.88239 9.55664 9.08984 9.55664C9.29712 9.55664 9.46484 9.72418 9.46484 9.93164V11.9398C9.46484 12.147 9.29712 12.3148 9.08984 12.3148Z" fill="#666666"/>
<path id="Vector_23" d="M12.0898 12.3148C11.8824 12.3148 11.7148 12.147 11.7148 11.9398V9.93164C11.7148 9.72418 11.8824 9.55664 12.0898 9.55664C12.2971 9.55664 12.4648 9.72418 12.4648 9.93164V11.9398C12.4648 12.147 12.2971 12.3148 12.0898 12.3148Z" fill="#666666"/>
<path id="Vector_24" d="M9.84082 10.6824C9.63336 10.6824 9.46582 10.5146 9.46582 10.3074V9.18164C9.46582 8.97418 9.63336 8.80664 9.84082 8.80664C10.0483 8.80664 10.2158 8.97418 10.2158 9.18164V10.3074C10.2158 10.5146 10.0483 10.6824 9.84082 10.6824Z" fill="#666666"/>
<path id="Vector_25" d="M11.3408 9.55664H9.84082C9.63336 9.55664 9.46582 9.38892 9.46582 9.18164C9.46582 8.97418 9.63336 8.80664 9.84082 8.80664H11.3408C11.5483 8.80664 11.7158 8.97418 11.7158 9.18164C11.7158 9.38892 11.5483 9.55664 11.3408 9.55664Z" fill="#666666"/>
<path id="Vector_26" d="M11.3408 10.6824C11.1334 10.6824 10.9658 10.5146 10.9658 10.3074V9.18164C10.9658 8.97418 11.1334 8.80664 11.3408 8.80664C11.5483 8.80664 11.7158 8.97418 11.7158 9.18164V10.3074C11.7158 10.5146 11.5483 10.6824 11.3408 10.6824Z" fill="#666666"/>
<path id="Vector_27" d="M9.84058 10.3066H9.08984C8.88239 10.3066 8.71484 10.1389 8.71484 9.93164C8.71484 9.72418 8.88239 9.55664 9.08984 9.55664H9.84058C10.048 9.55664 10.2156 9.72418 10.2156 9.93164C10.2156 10.1389 10.048 10.3066 9.84058 10.3066Z" fill="#666666"/>
<path id="Vector_28" d="M12.0894 10.3066H11.3408C11.1334 10.3066 10.9658 10.1389 10.9658 9.93164C10.9658 9.72418 11.1334 9.55664 11.3408 9.55664H12.0894C12.2966 9.55664 12.4644 9.72418 12.4644 9.93164C12.4644 10.1389 12.2966 10.3066 12.0894 10.3066Z" fill="#666666"/>
<path id="Vector_29" d="M10.9663 11.8066H10.2148C10.0074 11.8066 9.83984 11.6389 9.83984 11.4316C9.83984 11.2242 10.0074 11.0566 10.2148 11.0566H10.9663C11.1738 11.0566 11.3413 11.2242 11.3413 11.4316C11.3413 11.6389 11.1738 11.8066 10.9663 11.8066Z" fill="#666666"/>
<path id="Vector_30" d="M12.4736 18.9324C12.2662 18.9324 12.0986 18.7646 12.0986 18.5574C12.0986 17.9366 12.6038 17.4316 13.2244 17.4316C13.4318 17.4316 13.5994 17.5992 13.5994 17.8066C13.5994 18.0139 13.4318 18.1816 13.2244 18.1816C13.0171 18.1816 12.8486 18.3499 12.8486 18.5574C12.8486 18.7646 12.6807 18.9324 12.4736 18.9324Z" fill="#666666"/>
<path id="Vector_31" d="M16.2246 18.9324C16.0173 18.9324 15.8496 18.7646 15.8496 18.5574C15.8496 18.3503 15.6817 18.1824 15.4746 18.1824C15.2673 18.1824 15.0996 18.0146 15.0996 17.8074C15.0996 17.5999 15.2673 17.4324 15.4746 17.4324C16.095 17.4324 16.5996 17.937 16.5996 18.5574C16.5996 18.7646 16.4321 18.9324 16.2246 18.9324Z" fill="#666666"/>
<path id="Vector_32" d="M16.2247 19.6831H12.4736C12.2662 19.6831 12.0986 19.5156 12.0986 19.3081C12.0986 19.1006 12.2662 18.9331 12.4736 18.9331H16.2251C16.4326 18.9331 16.6001 19.1006 16.6001 19.3081C16.6001 19.5156 16.4322 19.6831 16.2247 19.6831Z" fill="#666666"/>
<path id="Vector_33" d="M15.5051 18.1816H13.1943C12.9871 18.1816 12.8193 18.0139 12.8193 17.8066C12.8193 17.5992 12.9871 17.4316 13.1943 17.4316H15.5051C15.7126 17.4316 15.8801 17.5992 15.8801 17.8066C15.8801 18.0139 15.7126 18.1816 15.5051 18.1816Z" fill="#666666"/>
<path id="Vector_34" d="M13.2236 18.1816C13.0162 18.1816 12.8486 18.0139 12.8486 17.8066V15.5574C12.8486 15.3499 13.0162 15.1824 13.2236 15.1824C13.4311 15.1824 13.5986 15.3499 13.5986 15.5574V17.8066C13.5986 18.0139 13.4311 18.1816 13.2236 18.1816Z" fill="#666666"/>
<path id="Vector_35" d="M15.4756 18.1824C15.2683 18.1824 15.1006 18.0146 15.1006 17.8074V15.5574C15.1006 15.3499 15.2683 15.1824 15.4756 15.1824C15.683 15.1824 15.8506 15.3499 15.8506 15.5574V17.8074C15.8506 18.0146 15.683 18.1824 15.4756 18.1824Z" fill="#666666"/>
<path id="Vector_36" d="M12.4736 19.6831C12.2662 19.6831 12.0986 19.5156 12.0986 19.3081V18.5574C12.0986 18.3499 12.2662 18.1824 12.4736 18.1824C12.6811 18.1824 12.8486 18.3499 12.8486 18.5574V19.3081C12.8486 19.5156 12.6807 19.6831 12.4736 19.6831Z" fill="#666666"/>
<path id="Vector_37" d="M16.2246 19.6831C16.0173 19.6831 15.8496 19.5156 15.8496 19.3081V18.5574C15.8496 18.3499 16.0173 18.1824 16.2246 18.1824C16.4321 18.1824 16.5996 18.3499 16.5996 18.5574V19.3081C16.5996 19.5156 16.4321 19.6831 16.2246 19.6831Z" fill="#666666"/>
<path id="Vector_38" d="M15.4751 15.9324H13.2236C13.0162 15.9324 12.8486 15.7646 12.8486 15.5574C12.8486 15.3499 13.0162 15.1824 13.2236 15.1824H15.4751C15.6826 15.1824 15.8501 15.3499 15.8501 15.5574C15.8501 15.7646 15.6826 15.9324 15.4751 15.9324Z" fill="#666666"/>
<path id="Vector_39" d="M15.8497 17.0574H12.8486C12.6412 17.0574 12.4736 16.8896 12.4736 16.6824C12.4736 16.4749 12.6412 16.3074 12.8486 16.3074H15.8497C16.0572 16.3074 16.2247 16.4749 16.2247 16.6824C16.2247 16.8896 16.0572 17.0574 15.8497 17.0574Z" fill="#666666"/>
<path id="Vector_40" d="M17.3486 18.9324C17.1412 18.9324 16.9736 18.7646 16.9736 18.5574C16.9736 17.9366 17.4788 17.4316 18.0994 17.4316C18.3068 17.4316 18.4744 17.5992 18.4744 17.8066C18.4744 18.0139 18.3068 18.1816 18.0994 18.1816C17.8921 18.1816 17.7236 18.3499 17.7236 18.5574C17.7236 18.7646 17.5557 18.9324 17.3486 18.9324Z" fill="#666666"/>
<path id="Vector_41" d="M21.0996 18.9324C20.8923 18.9324 20.7246 18.7646 20.7246 18.5574C20.7246 18.3503 20.5567 18.1824 20.3496 18.1824C20.1423 18.1824 19.9746 18.0146 19.9746 17.8074C19.9746 17.5999 20.1423 17.4324 20.3496 17.4324C20.97 17.4324 21.4746 17.937 21.4746 18.5574C21.4746 18.7646 21.3071 18.9324 21.0996 18.9324Z" fill="#666666"/>
<path id="Vector_42" d="M21.0997 19.6831H17.3486C17.1412 19.6831 16.9736 19.5156 16.9736 19.3081C16.9736 19.1006 17.1412 18.9331 17.3486 18.9331H21.1001C21.3076 18.9331 21.4751 19.1006 21.4751 19.3081C21.4751 19.5156 21.3072 19.6831 21.0997 19.6831Z" fill="#666666"/>
<path id="Vector_43" d="M20.3801 18.1816H18.0693C17.8621 18.1816 17.6943 18.0139 17.6943 17.8066C17.6943 17.5992 17.8621 17.4316 18.0693 17.4316H20.3801C20.5876 17.4316 20.7551 17.5992 20.7551 17.8066C20.7551 18.0139 20.5876 18.1816 20.3801 18.1816Z" fill="#666666"/>
<path id="Vector_44" d="M18.0986 18.1816C17.8912 18.1816 17.7236 18.0139 17.7236 17.8066V15.5574C17.7236 15.3499 17.8912 15.1824 18.0986 15.1824C18.3061 15.1824 18.4736 15.3499 18.4736 15.5574V17.8066C18.4736 18.0139 18.3061 18.1816 18.0986 18.1816Z" fill="#666666"/>
<path id="Vector_45" d="M20.3506 18.1824C20.1433 18.1824 19.9756 18.0146 19.9756 17.8074V15.5574C19.9756 15.3499 20.1433 15.1824 20.3506 15.1824C20.558 15.1824 20.7256 15.3499 20.7256 15.5574V17.8074C20.7256 18.0146 20.558 18.1824 20.3506 18.1824Z" fill="#666666"/>
<path id="Vector_46" d="M17.3486 19.6831C17.1412 19.6831 16.9736 19.5156 16.9736 19.3081V18.5574C16.9736 18.3499 17.1412 18.1824 17.3486 18.1824C17.5561 18.1824 17.7236 18.3499 17.7236 18.5574V19.3081C17.7236 19.5156 17.5557 19.6831 17.3486 19.6831Z" fill="#666666"/>
<path id="Vector_47" d="M21.0996 19.6831C20.8923 19.6831 20.7246 19.5156 20.7246 19.3081V18.5574C20.7246 18.3499 20.8923 18.1824 21.0996 18.1824C21.3071 18.1824 21.4746 18.3499 21.4746 18.5574V19.3081C21.4746 19.5156 21.3071 19.6831 21.0996 19.6831Z" fill="#666666"/>
<path id="Vector_48" d="M20.3501 15.9324H18.0986C17.8912 15.9324 17.7236 15.7646 17.7236 15.5574C17.7236 15.3499 17.8912 15.1824 18.0986 15.1824H20.3501C20.5576 15.1824 20.7251 15.3499 20.7251 15.5574C20.7251 15.7646 20.5576 15.9324 20.3501 15.9324Z" fill="#666666"/>
<path id="Vector_49" d="M20.7247 17.0574H17.7236C17.5162 17.0574 17.3486 16.8896 17.3486 16.6824C17.3486 16.4749 17.5162 16.3074 17.7236 16.3074H20.7247C20.9322 16.3074 21.0997 16.4749 21.0997 16.6824C21.0997 16.8896 20.9322 17.0574 20.7247 17.0574Z" fill="#666666"/>
</g>
<defs>
<clipPath id="clip0_17672_264">
<rect width="24" height="24" fill="white" transform="translate(0.46582 0.738037)"/>
</clipPath>
</defs>
</svg>
