<svg width="51" height="51" viewBox="0 0 51 51" fill="none" xmlns="http://www.w3.org/2000/svg">
<g id="guarantee 1" clip-path="url(#clip0_17602_405)">
<g id="Group">
<path id="Vector" d="M47.5795 18.1897C46.9197 16.1467 47.201 13.08 45.4861 10.7122C43.7578 8.32563 40.7519 7.64731 39.0545 6.4059C37.375 5.17758 35.8125 2.50463 32.9874 1.58276C30.242 0.686861 27.4346 1.90258 25.2578 1.90258C23.0813 1.90258 20.2741 0.686568 17.5282 1.58266C14.7036 2.50434 13.1398 5.17788 11.4614 6.40561C9.76592 7.64555 6.75771 8.32573 5.02969 10.7119C3.31631 13.0778 3.59473 16.1515 2.93613 18.1896C2.30938 20.1293 0.257812 22.4574 0.257812 25.4722C0.257812 28.4889 2.30703 30.808 2.93613 32.7547C3.5959 34.7977 3.31465 37.8644 5.02949 40.2323C6.75771 42.6189 9.76357 43.2971 11.4611 44.5386C13.1403 45.7667 14.7031 48.4399 17.5282 49.3617C20.2718 50.257 23.0836 49.0418 25.2578 49.0418C27.429 49.0418 30.2474 50.2557 32.9874 49.3618C35.8121 48.4401 37.3749 45.7671 39.0542 44.5388C40.7497 43.2989 43.7579 42.6187 45.4859 40.2326C47.1994 37.8666 46.9208 34.7931 47.5795 32.7548C48.2063 30.815 50.2578 28.487 50.2578 25.4722C50.2578 22.4557 48.2091 20.1374 47.5795 18.1897V18.1897ZM43.8626 31.5537C43.0936 33.934 43.295 36.598 42.3224 37.9412C41.3366 39.3022 38.7469 39.9239 36.7485 41.3856C34.7721 42.831 33.3868 45.1223 31.7757 45.648C30.2515 46.1455 27.7675 45.1354 25.2579 45.1354C22.73 45.1354 20.2716 46.1476 18.74 45.648C17.1291 45.1223 15.7458 42.8326 13.7672 41.3855C11.7807 39.9327 9.17617 39.2982 8.19326 37.941C7.22373 36.6023 7.41758 33.9199 6.65322 31.5538C5.904 29.2355 4.16406 27.2282 4.16406 25.4722C4.16406 23.7145 5.90244 21.7141 6.65303 19.3908C7.42207 17.0105 7.22061 14.3463 8.19326 13.0033C9.17842 11.6431 11.7701 11.0194 13.7672 9.55884C15.7499 8.10874 17.1265 5.8229 18.7398 5.29643C20.2628 4.79956 22.7549 5.80903 25.2577 5.80903C27.7902 5.80903 30.2425 4.79614 31.7756 5.29643C33.3863 5.82202 34.7708 8.11264 36.7485 9.55893C38.7348 11.0118 41.3395 11.6462 42.3224 13.0034C43.2921 14.3423 43.0972 17.022 43.8624 19.3906V19.3907C44.6116 21.7089 46.3516 23.7163 46.3516 25.4722C46.3516 27.2299 44.6132 29.2303 43.8626 31.5537V31.5537ZM34.2562 19.2032C35.0189 19.966 35.0189 21.2026 34.2562 21.9653L24.4802 31.7413C23.7174 32.5041 22.4807 32.504 21.718 31.7413L16.2596 26.2829C15.4968 25.5201 15.4967 24.2834 16.2595 23.5207C17.0223 22.7581 18.2591 22.758 19.0216 23.5207L23.099 27.5981L31.4938 19.2033C32.2566 18.4405 33.4934 18.4405 34.2562 19.2032V19.2032Z" fill="#244D4D"/>
</g>
</g>
<defs>
<clipPath id="clip0_17602_405">
<rect width="50" height="50" fill="white" transform="translate(0.257812 0.472046)"/>
</clipPath>
</defs>
</svg>
