<svg width="20" height="21" viewBox="0 0 20 21" fill="none" xmlns="http://www.w3.org/2000/svg">
<g id="instagram 1" clip-path="url(#clip0_17700_368)">
<path id="Vector" d="M11.915 10.9253C11.915 11.9824 11.0581 12.8394 10.001 12.8394C8.94385 12.8394 8.08691 11.9824 8.08691 10.9253C8.08691 9.86816 8.94385 9.01123 10.001 9.01123C11.0581 9.01123 11.915 9.86816 11.915 10.9253Z" fill="white"/>
<path id="Vector_2" d="M14.4769 7.53873C14.3849 7.2894 14.2381 7.06372 14.0474 6.87848C13.8622 6.68774 13.6366 6.54095 13.3871 6.44894C13.1848 6.37036 12.8809 6.27682 12.321 6.25134C11.7154 6.22372 11.5338 6.21777 10.0006 6.21777C8.46725 6.21777 8.28568 6.22357 7.68021 6.25119C7.12036 6.27682 6.81625 6.37036 6.61407 6.44894C6.36459 6.54095 6.13892 6.68774 5.95383 6.87848C5.76309 7.06372 5.6163 7.28925 5.52414 7.53873C5.44556 7.74106 5.35202 8.04517 5.32654 8.60501C5.29892 9.21048 5.29297 9.39206 5.29297 10.9254C5.29297 12.4586 5.29892 12.6402 5.32654 13.2458C5.35202 13.8057 5.44556 14.1096 5.52414 14.312C5.6163 14.5614 5.76294 14.787 5.95367 14.9722C6.13892 15.1629 6.36444 15.3097 6.61392 15.4017C6.81625 15.4805 7.12036 15.574 7.68021 15.5995C8.28568 15.6271 8.4671 15.6329 10.0005 15.6329C11.534 15.6329 11.7155 15.6271 12.3209 15.5995C12.8807 15.574 13.1848 15.4805 13.3871 15.4017C13.8879 15.2086 14.2838 14.8127 14.4769 14.312C14.5555 14.1096 14.649 13.8057 14.6747 13.2458C14.7023 12.6402 14.7081 12.4586 14.7081 10.9254C14.7081 9.39206 14.7023 9.21048 14.6747 8.60501C14.6492 8.04517 14.5557 7.74106 14.4769 7.53873ZM10.0006 13.8739C8.37204 13.8739 7.05185 12.5538 7.05185 10.9253C7.05185 9.29669 8.37204 7.97665 10.0006 7.97665C11.629 7.97665 12.9492 9.29669 12.9492 10.9253C12.9492 12.5538 11.629 13.8739 10.0006 13.8739ZM13.0658 8.54916C12.6852 8.54916 12.3767 8.24063 12.3767 7.86008C12.3767 7.47952 12.6852 7.17099 13.0658 7.17099C13.4464 7.17099 13.7549 7.47952 13.7549 7.86008C13.7547 8.24063 13.4464 8.54916 13.0658 8.54916Z" fill="white"/>
<path id="Vector_3" d="M10.001 0.925293C4.47897 0.925293 0.000976562 5.40329 0.000976562 10.9253C0.000976562 16.4473 4.47897 20.9253 10.001 20.9253C15.523 20.9253 20.001 16.4473 20.001 10.9253C20.001 5.40329 15.523 0.925293 10.001 0.925293ZM15.7085 13.2927C15.6808 13.904 15.5836 14.3213 15.4417 14.6866C15.1433 15.4579 14.5336 16.0677 13.7623 16.366C13.3971 16.5079 12.9796 16.6049 12.3685 16.6328C11.7562 16.6608 11.5606 16.6675 10.0011 16.6675C8.44153 16.6675 8.24606 16.6608 7.63358 16.6328C7.02246 16.6049 6.60498 16.5079 6.23984 16.366C5.85654 16.2218 5.50955 15.9958 5.22269 15.7036C4.93063 15.4169 4.70465 15.0697 4.56046 14.6866C4.41855 14.3214 4.32135 13.904 4.29358 13.2928C4.26535 12.6804 4.25879 12.4847 4.25879 10.9253C4.25879 9.36584 4.26535 9.17023 4.29343 8.55789C4.3212 7.94662 4.41824 7.5293 4.56015 7.164C4.70435 6.78085 4.93048 6.43372 5.22269 6.147C5.5094 5.8548 5.85654 5.62881 6.23969 5.48462C6.60498 5.34271 7.02231 5.24567 7.63358 5.21774C8.24591 5.18982 8.44153 5.18311 10.001 5.18311C11.5604 5.18311 11.756 5.18982 12.3684 5.2179C12.9796 5.24567 13.397 5.34271 13.7623 5.48447C14.1454 5.62866 14.4926 5.8548 14.7794 6.147C15.0715 6.43387 15.2976 6.78085 15.4417 7.164C15.5837 7.5293 15.6808 7.94662 15.7087 8.55789C15.7366 9.17023 15.7432 9.36584 15.7432 10.9253C15.7432 12.4847 15.7366 12.6804 15.7085 13.2927Z" fill="white"/>
</g>
<defs>
<clipPath id="clip0_17700_368">
<rect width="20" height="20" fill="white" transform="translate(0.000976562 0.925293)"/>
</clipPath>
</defs>
</svg>
