<svg width="25" height="25" viewBox="0 0 25 25" fill="none" xmlns="http://www.w3.org/2000/svg">
<g id="kitchen (1) 1" clip-path="url(#clip0_17672_217)">
<g id="Group">
<g id="Group_2">
<g id="Group_3">
<path id="Vector" d="M0.47168 24.7522H10.3577V19.083H0.47168V24.7522ZM2.63384 20.5511H8.24234V21.9567H2.63384V20.5511Z" fill="#666666"/>
<path id="Vector_2" d="M0.47168 17.6774H10.3577V12.1019H0.47168V17.6774ZM2.63384 13.5975H8.24234V15.0031H2.63384V13.5975Z" fill="#666666"/>
<path id="Vector_3" d="M11.7637 24.7522H24.4608V12.1019H11.7637V24.7522ZM20.1972 13.5975H21.6028V15.0378H20.1972V13.5975ZM17.386 13.5975H18.7916V15.0378H17.386V13.5975ZM14.5749 13.5975H15.9805V15.0378H14.5749V13.5975ZM14.5749 16.2953H21.6028V21.9411H14.5749V16.2953Z" fill="#666666"/>
<path id="Vector_4" d="M20.1972 3.99271V0.752197H15.9805V3.99506L11.7637 6.8062V9.29071H24.4608V6.80385L20.1972 3.99271Z" fill="#666666"/>
</g>
</g>
</g>
</g>
<defs>
<clipPath id="clip0_17672_217">
<rect width="24" height="24" fill="white" transform="translate(0.46582 0.752197)"/>
</clipPath>
</defs>
</svg>
