<svg width="24" height="25" viewBox="0 0 24 25" fill="none" xmlns="http://www.w3.org/2000/svg">
<g id="loupe 1" clip-path="url(#clip0_17602_33)">
<g id="Group">
<g id="Group_2">
<path id="Vector" d="M10.5691 0.538086C4.74145 0.538086 0 5.27635 0 11.1001C0 16.9241 4.74145 21.6621 10.5691 21.6621C16.3971 21.6621 21.1382 16.9241 21.1382 11.1001C21.1382 5.27635 16.3971 0.538086 10.5691 0.538086ZM10.5691 19.7122C5.81723 19.7122 1.95122 15.8488 1.95122 11.1001C1.95122 6.35145 5.81723 2.48799 10.5691 2.48799C15.321 2.48799 19.187 6.35141 19.187 11.1001C19.187 15.8487 15.321 19.7122 10.5691 19.7122Z" fill="#244D4D"/>
</g>
</g>
<g id="Group_3">
<g id="Group_4">
<path id="Vector_2" d="M23.714 22.8577L18.1205 17.268C17.7393 16.8871 17.1221 16.8871 16.7409 17.268C16.3598 17.6485 16.3598 18.266 16.7409 18.6466L22.3344 24.2363C22.525 24.4267 22.7745 24.522 23.0242 24.522C23.2736 24.522 23.5234 24.4267 23.714 24.2363C24.0951 23.8558 24.0951 23.2383 23.714 22.8577Z" fill="#244D4D"/>
</g>
</g>
</g>
<defs>
<clipPath id="clip0_17602_33">
<rect width="24" height="24" fill="white" transform="translate(0 0.520264)"/>
</clipPath>
</defs>
</svg>
