<svg width="25" height="25" viewBox="0 0 25 25" fill="none" xmlns="http://www.w3.org/2000/svg">
<g id="restaurant 1" clip-path="url(#clip0_17672_230)">
<g id="Group">
<path id="Vector" d="M20.0874 10.3105C20.3683 10.3105 20.596 10.0828 20.596 9.8019V8.17045C20.596 7.88955 20.3683 7.66187 20.0874 7.66187L19.3636 7.66627L16.9883 10.3105H20.0874Z" fill="#666666"/>
<path id="Vector_2" d="M4.84257 10.3103H7.96608L5.54964 7.66174H4.84257C4.56167 7.66174 4.33398 7.88943 4.33398 8.17033V9.80165C4.33398 10.0826 4.56167 10.3103 4.84257 10.3103Z" fill="#666666"/>
<path id="Vector_3" d="M12.7564 12.9331L17.4696 7.66187H7.45996L12.2506 12.9351C12.3864 13.0846 12.6217 13.0836 12.7564 12.9331Z" fill="#666666"/>
<path id="Vector_4" d="M14.0829 20.3511H13.2073V14.4324C12.9973 14.5537 12.7573 14.6199 12.5097 14.6209C12.5079 14.6209 12.506 14.6209 12.5042 14.6209C12.2548 14.6209 12.0127 14.5546 11.801 14.4324V20.3511H10.8458C10.4574 20.3511 10.1426 20.6659 10.1426 21.0542C10.1426 21.4426 10.4574 21.7574 10.8458 21.7574H14.083C14.4713 21.7574 14.7861 21.4426 14.7861 21.0542C14.7861 20.6659 14.4713 20.3511 14.0829 20.3511Z" fill="#666666"/>
<path id="Vector_5" d="M6.39551 12.2667H1.87217V3.93157C1.87217 3.54323 1.55734 3.22839 1.169 3.22839C0.780656 3.22839 0.46582 3.54323 0.46582 3.93157V21.1105C0.46582 21.4988 0.780656 21.8137 1.169 21.8137C1.55734 21.8137 1.87217 21.4988 1.87217 21.1105V15.8581H6.98487V21.1105C6.98487 21.4988 7.2997 21.8137 7.68805 21.8137C8.07639 21.8137 8.39122 21.4988 8.39122 21.1105V14.2624C8.39122 13.162 7.49594 12.2667 6.39551 12.2667Z" fill="#666666"/>
<path id="Vector_6" d="M23.762 3.22839C23.3736 3.22839 23.0588 3.54323 23.0588 3.93157V12.2667H18.6402C17.5398 12.2667 16.6445 13.162 16.6445 14.2624V21.1105C16.6445 21.4988 16.9594 21.8137 17.3477 21.8137C17.736 21.8137 18.0509 21.4988 18.0509 21.1105V15.857H23.0588V21.1105C23.0588 21.4988 23.3737 21.8137 23.762 21.8137C24.1503 21.8137 24.4652 21.4988 24.4652 21.1105V3.93157C24.4651 3.54323 24.1503 3.22839 23.762 3.22839Z" fill="#666666"/>
</g>
</g>
<defs>
<clipPath id="clip0_17672_230">
<rect width="24" height="24" fill="white" transform="translate(0.46582 0.520996)"/>
</clipPath>
</defs>
</svg>
