<svg width="25" height="25" viewBox="0 0 25 25" fill="none" xmlns="http://www.w3.org/2000/svg">
<g id="sofa 1" clip-path="url(#clip0_17672_206)">
<g id="Group">
<path id="Vector" d="M4.91895 12.0491H11.0596C11.5994 12.0491 12.0923 12.2532 12.4658 12.5879C12.8393 12.2531 13.3322 12.0491 13.8721 12.0491H20.0127V4.50853C20.0127 4.12204 19.7035 3.80043 19.317 3.79907C19.3112 3.79907 19.5569 3.79907 5.62207 3.79907C5.22195 3.79907 4.91895 4.1271 4.91895 4.50853V12.0491Z" fill="#666666"/>
<path id="Vector_2" d="M13.1689 14.1584V15.7991H20.0127C20.0127 14.7605 20.0127 14.5472 20.0127 13.4553H13.8721C13.4844 13.4553 13.1689 13.7707 13.1689 14.1584Z" fill="#666666"/>
<path id="Vector_3" d="M22.193 8.67518C21.7596 8.68868 21.4189 9.05224 21.4189 9.48583C21.4189 9.59711 21.4189 16.9016 21.4189 16.5022C21.4189 16.8905 21.1041 17.2053 20.7158 17.2053C20.1537 17.2053 3.68205 17.2053 4.21582 17.2053C3.82751 17.2053 3.5127 16.8905 3.5127 16.5022C3.5127 16.2428 3.5127 9.41819 3.5127 9.48583C3.5127 9.05224 3.17205 8.68868 2.73865 8.67518C1.48943 8.63627 0.46582 9.63564 0.46582 10.8772V18.096C0.46582 19.261 1.41021 20.2053 2.5752 20.2053H3.5127V20.9823C3.5127 21.361 3.80365 21.6867 4.18184 21.7046C4.58562 21.7236 4.91895 21.4018 4.91895 21.0022V20.2053H20.0127V20.9823C20.0127 21.361 20.3036 21.6867 20.6818 21.7046C21.0856 21.7236 21.4189 21.4018 21.4189 21.0022V20.2053H22.3564C23.5214 20.2053 24.4658 19.261 24.4658 18.096V10.9168C24.4658 9.61882 23.4342 8.6365 22.193 8.67518Z" fill="#666666"/>
<path id="Vector_4" d="M11.7627 14.1584C11.7627 13.7707 11.4473 13.4553 11.0596 13.4553H4.91895V15.7991H11.7627V14.1584Z" fill="#666666"/>
</g>
</g>
<defs>
<clipPath id="clip0_17672_206">
<rect width="24" height="24" fill="white" transform="translate(0.46582 0.752197)"/>
</clipPath>
</defs>
</svg>
