<svg width="17" height="17" viewBox="0 0 17 17" fill="none" xmlns="http://www.w3.org/2000/svg">
<rect width="17" height="17" fill="#D6D6D6"/>
<g id="Moder Furniture website" clip-path="url(#clip0_0_1)">
<rect width="1440" height="4893" transform="translate(-844 -3651)" fill="#FCFBFF"/>
<g id="Frame 94">
<g id="Group 9007">
<g id="Frame 92">
<g id="Frame 44">
<g id="Group 65">
<g id="star 2" clip-path="url(#clip1_0_1)">
<path id="Vector" d="M16.8909 6.18216C16.7862 5.85817 16.4988 5.62806 16.1588 5.59742L11.5408 5.1781L9.7147 0.903944C9.58006 0.590703 9.27341 0.387939 8.9327 0.387939C8.59199 0.387939 8.28534 0.590703 8.1507 0.904676L6.3246 5.1781L1.70583 5.59742C1.36646 5.6288 1.07984 5.85817 0.974486 6.18216C0.869137 6.50614 0.96643 6.86149 1.22315 7.0855L4.71384 10.1469L3.68452 14.681C3.6092 15.0144 3.7386 15.359 4.01521 15.559C4.1639 15.6664 4.33785 15.7211 4.51327 15.7211C4.66452 15.7211 4.81455 15.6803 4.9492 15.5998L8.9327 13.219L12.9147 15.5998C13.2061 15.7751 13.5734 15.7591 13.8495 15.559C14.1262 15.3584 14.2555 15.0137 14.1801 14.681L13.1508 10.1469L16.6415 7.08611C16.8982 6.86149 16.9963 6.50675 16.8909 6.18216Z" fill="#FFB624"/>
</g>
</g>
</g>
</g>
</g>
</g>
</g>
<defs>
<clipPath id="clip0_0_1">
<rect width="1440" height="4893" fill="white" transform="translate(-844 -3651)"/>
</clipPath>
<clipPath id="clip1_0_1">
<rect width="16" height="16" fill="white" transform="translate(0.932617 0.0446777)"/>
</clipPath>
</defs>
</svg>
