<svg width="97" height="42" viewBox="0 0 97 42" fill="none" xmlns="http://www.w3.org/2000/svg">
<g id="stripe-4 1" clip-path="url(#clip0_17602_192)">
<path id="Vector" d="M7.13566 16.5457C7.13566 15.4987 7.99483 15.0958 9.41808 15.0958C11.4585 15.0958 14.036 15.7135 16.0766 16.8143V10.5045C13.8481 9.61857 11.6465 9.26951 9.41808 9.26951C3.96746 9.26951 0.342773 12.1156 0.342773 16.8681C0.342773 24.2784 10.5455 23.0971 10.5455 26.2923C10.5455 27.5272 9.4717 27.93 7.96802 27.93C5.73959 27.93 2.89346 27.0171 0.638034 25.782V32.1722C3.1351 33.2462 5.65898 33.7025 7.96802 33.7025C13.5527 33.7025 17.3922 30.9372 17.3922 26.1311C17.3654 18.13 7.13566 19.5529 7.13566 16.5457V16.5457ZM25.2859 3.89968L18.7347 5.29575L18.7079 26.8022C18.7079 30.7762 21.6882 33.7025 25.662 33.7025C27.8636 33.7025 29.4745 33.2999 30.3605 32.8166V27.3661C29.5015 27.7152 25.2591 28.9502 25.2591 24.9765V15.4449H30.3605V9.72599H25.2591L25.2859 3.89968V3.89968ZM38.7108 11.7128L38.2812 9.72599H32.4817V33.2193H39.1941V17.2976C40.7781 15.2302 43.4631 15.6061 44.2955 15.9014V9.72599C43.4363 9.40373 40.2949 8.81302 38.7108 11.7128V11.7128ZM45.9332 9.72599H52.6725V33.2193H45.9332V9.72599V9.72599ZM45.9332 7.6854L52.6725 6.23553V0.785095L45.9332 2.20816V7.68522V7.6854ZM66.688 9.26951C64.0567 9.26951 62.3651 10.5045 61.4256 11.3639L61.0763 9.69918H55.1696V41.0055L61.8818 39.5827L61.9088 31.9842C62.8754 32.6823 64.2983 33.6757 66.6612 33.6757C71.4673 33.6757 75.8437 29.8094 75.8437 21.2982C75.8169 13.5117 71.3866 9.26951 66.688 9.26951V9.26951ZM65.0771 27.7688C63.4929 27.7688 62.553 27.2051 61.9088 26.507L61.8818 16.5457C62.58 15.7671 63.5466 15.2302 65.0771 15.2302C67.5203 15.2302 69.2118 17.9688 69.2118 21.486C69.2118 25.0839 67.5471 27.7688 65.0771 27.7688V27.7688ZM97.0011 21.5666C97.0011 14.6931 93.6717 9.26951 87.3085 9.26951C80.9181 9.26951 77.0517 14.6933 77.0517 21.513C77.0517 29.5946 81.6164 33.6757 88.1674 33.6757C91.3626 33.6757 93.7791 32.9508 95.6048 31.9306V26.5606C93.7793 27.4736 91.6849 28.0375 89.0268 28.0375C86.4223 28.0375 84.1133 27.1245 83.818 23.9563H96.9475C96.9475 23.607 97.0011 22.211 97.0011 21.5666ZM83.7374 19.016C83.7374 15.982 85.5901 14.7199 87.2817 14.7199C88.9194 14.7199 90.6647 15.982 90.6647 19.016H83.7374Z" fill="#154444" fill-opacity="0.86"/>
</g>
<defs>
<clipPath id="clip0_17602_192">
<rect width="96.6583" height="40.4032" fill="white" transform="translate(0.342773 0.784424)"/>
</clipPath>
</defs>
</svg>
