<svg width="20" height="21" viewBox="0 0 20 21" fill="none" xmlns="http://www.w3.org/2000/svg">
<g clip-path="url(#clip0_17700_362)">
<path d="M10.0019 20.9251C15.5247 20.9251 20.0018 16.448 20.0018 10.9252C20.0018 5.40241 15.5247 0.925293 10.0019 0.925293C4.47907 0.925293 0.00195312 5.40241 0.00195312 10.9252C0.00195312 16.448 4.47907 20.9251 10.0019 20.9251Z" fill="white"/>
<path d="M16.1262 8.11185C15.6976 8.30188 15.2367 8.4304 14.7532 8.4878C15.2468 8.19207 15.6256 7.72414 15.8044 7.16566C15.3425 7.43964 14.8308 7.6384 14.2865 7.74553C13.8505 7.28117 13.2293 6.99097 12.5414 6.99097C11.2216 6.99097 10.1511 8.06141 10.1511 9.38123C10.1511 9.56858 10.1724 9.75093 10.2134 9.92598C8.22684 9.82634 6.46548 8.8748 5.28648 7.42823C5.08077 7.78118 4.96276 8.19207 4.96276 8.63005C4.96276 9.45913 5.38506 10.1911 6.02607 10.6196C5.63444 10.6073 5.26562 10.4998 4.94351 10.3203C4.94333 10.3305 4.94333 10.3406 4.94333 10.3506C4.94333 11.5087 5.7676 12.4747 6.86085 12.6941C6.66049 12.7491 6.4489 12.7781 6.23125 12.7781C6.07688 12.7781 5.92732 12.7633 5.7815 12.7355C6.08561 13.6849 6.96817 14.376 8.01436 14.3954C7.19616 15.0366 6.16565 15.4186 5.04548 15.4186C4.85296 15.4186 4.66222 15.4074 4.47559 15.3851C5.53283 16.0636 6.78955 16.4591 8.13932 16.4591C12.5359 16.4591 14.9402 12.817 14.9402 9.65806C14.9402 9.55449 14.9379 9.45128 14.9333 9.34896C15.4007 9.01205 15.8058 8.59119 16.1262 8.11185Z" fill="#305F64"/>
</g>
<defs>
<clipPath id="clip0_17700_362">
<rect width="20" height="20" fill="white" transform="translate(0.000976562 0.925293)"/>
</clipPath>
</defs>
</svg>
