<svg width="99" height="35" viewBox="0 0 99 35" fill="none" xmlns="http://www.w3.org/2000/svg">
<g id="Uber_logo_2018 1" clip-path="url(#clip0_17602_143)">
<g id="Group">
<path id="Vector" d="M6.57441 25.2684C6.98558 26.3668 7.55483 27.3059 8.28228 28.0858C9.00972 28.8659 9.87153 29.4627 10.8677 29.8766C11.864 30.2905 12.9472 30.4974 14.1174 30.4974C15.256 30.4974 16.3233 30.2825 17.3196 29.8526C18.3159 29.4228 19.1855 28.818 19.9287 28.0381C20.6719 27.2581 21.2491 26.327 21.6603 25.2446C22.0715 24.1622 22.277 22.9525 22.277 21.6154V0.986084H27.2582V34.4131H22.3245V31.3091C21.2175 32.4869 19.9129 33.3943 18.4106 34.0311C16.9083 34.6677 15.2876 34.9861 13.5481 34.9861C11.7769 34.9861 10.1245 34.6756 8.59058 34.0549C7.05675 33.4341 5.72835 32.5508 4.6057 31.4046C3.48304 30.2585 2.59741 28.8818 1.94911 27.274C1.30071 25.6664 0.976562 23.8757 0.976562 21.9018V0.986084H5.95771V21.6154C5.95771 22.9525 6.16324 24.1701 6.57441 25.2684Z" fill="#154444"/>
<path id="Vector_2" d="M35.8441 0.986084V13.163C36.951 12.0488 38.232 11.1655 39.6867 10.5128C41.1415 9.86011 42.7229 9.53382 44.4307 9.53382C46.2018 9.53382 47.862 9.86803 49.4118 10.5366C50.9615 11.2051 52.3055 12.1124 53.4441 13.2586C54.5828 14.4047 55.4841 15.7576 56.1483 17.3175C56.8124 18.8775 57.1445 20.5329 57.1445 22.2839C57.1445 24.0347 56.8124 25.6822 56.1483 27.2262C55.4841 28.7702 54.5828 30.1153 53.4441 31.2612C52.3055 32.4074 50.9615 33.3147 49.4118 33.9832C47.862 34.6518 46.2017 34.986 44.4307 34.986C42.7228 34.986 41.1337 34.6597 39.663 34.007C38.1924 33.3544 36.9036 32.471 35.7967 31.3568V34.413H31.0527V0.986084H35.8441ZM36.3896 25.5788C36.8165 26.5976 37.4096 27.489 38.1687 28.253C38.9277 29.0171 39.8132 29.622 40.8253 30.0677C41.8374 30.5134 42.9284 30.7362 44.0986 30.7362C45.2373 30.7362 46.3125 30.5134 47.3245 30.0677C48.3365 29.622 49.2141 29.0172 49.9575 28.253C50.7006 27.4891 51.2936 26.5976 51.7364 25.5788C52.1791 24.5601 52.4005 23.4618 52.4005 22.2839C52.4005 21.1059 52.1791 19.9997 51.7364 18.965C51.2936 17.9303 50.7006 17.031 49.9575 16.267C49.2142 15.5031 48.3366 14.9061 47.3245 14.4763C46.3124 14.0466 45.2372 13.8316 44.0986 13.8316C42.9601 13.8316 41.8848 14.0465 40.8728 14.4763C39.8608 14.9062 38.9753 15.5031 38.2161 16.267C37.4572 17.031 36.8562 17.9303 36.4135 18.965C35.9707 19.9997 35.7493 21.1059 35.7493 22.2839C35.7492 23.4618 35.9627 24.5601 36.3896 25.5788Z" fill="#154444"/>
<path id="Vector_3" d="M59.848 17.3652C60.4805 15.8371 61.3504 14.4922 62.4572 13.3302C63.564 12.1682 64.8766 11.2529 66.3947 10.5844C67.9128 9.91588 69.5574 9.58167 71.3284 9.58167C73.0679 9.58167 74.6809 9.90003 76.1673 10.5366C77.6537 11.1734 78.9346 12.0568 80.0099 13.187C81.0852 14.3171 81.9234 15.6542 82.5241 17.1982C83.1251 18.7422 83.4255 20.4216 83.4255 22.2362V23.8121H63.7381C63.8963 24.799 64.2126 25.7142 64.687 26.5577C65.1614 27.4013 65.7543 28.1336 66.4659 28.7544C67.1775 29.3752 67.984 29.8608 68.8853 30.2108C69.7867 30.561 70.7433 30.7362 71.7554 30.7362C74.6335 30.7362 76.9581 29.5423 78.7291 27.1546L82.1922 29.7332C80.9904 31.3569 79.504 32.6303 77.733 33.5535C75.9618 34.4767 73.9694 34.9383 71.7555 34.9383C69.9528 34.9383 68.2687 34.6198 66.7032 33.9832C65.1377 33.3466 63.7778 32.4551 62.6234 31.309C61.4691 30.1629 60.5598 28.8179 59.8957 27.2739C59.2315 25.73 58.8994 24.0506 58.8994 22.236C58.8992 20.517 59.2156 18.8933 59.848 17.3652ZM66.5133 15.4789C65.1692 16.6091 64.2758 18.1133 63.833 19.9916H78.5868C78.1756 18.1133 77.298 16.6091 75.9538 15.4789C74.6097 14.3489 73.0363 13.7838 71.2336 13.7838C69.4309 13.7838 67.8575 14.3489 66.5133 15.4789Z" fill="#154444"/>
<path id="Vector_4" d="M92.3916 16.0281C91.3796 17.1424 90.8735 18.6545 90.8735 20.5647V34.4131H86.082V10.0591H90.8259V13.0676C91.4269 12.0807 92.2097 11.3007 93.1742 10.7277C94.1388 10.1545 95.2853 9.86798 96.6137 9.86798H98.274V14.3568H96.2816C94.7003 14.3569 93.4036 14.9139 92.3916 16.0281Z" fill="#154444"/>
</g>
</g>
<defs>
<clipPath id="clip0_17602_143">
<rect width="97.2975" height="34" fill="white" transform="translate(0.976562 0.986084)"/>
</clipPath>
</defs>
</svg>
