<svg width="91" height="33" viewBox="0 0 91 33" fill="none" xmlns="http://www.w3.org/2000/svg">
<g id="visa 1" clip-path="url(#clip0_17602_164)">
<path id="Vector" d="M33.5967 30.7461L38.1478 5.14609H45.2589L40.85 30.7461H33.5967Z" fill="#3C58BF"/>
<path id="Vector_2" d="M33.5967 30.7461L39.4278 5.14609H45.2589L40.85 30.7461H33.5967Z" fill="#293688"/>
<path id="Vector_3" d="M66.592 5.43053C65.1698 4.86164 62.8943 4.29276 60.0498 4.29276C52.9387 4.29276 47.8187 7.84831 47.8187 12.9683C47.8187 16.8083 51.3743 18.7994 54.2187 20.0794C57.0631 21.3594 57.9165 22.2128 57.9165 23.3505C57.9165 25.0572 55.6409 25.9105 53.6498 25.9105C50.8054 25.9105 49.2409 25.4839 46.8231 24.4883L45.8276 24.0616L44.832 29.8928C46.5387 30.6039 49.6676 31.315 52.9387 31.315C60.4765 31.315 65.4543 27.7594 65.4543 22.355C65.4543 19.3683 63.6054 17.0928 59.3387 15.2439C56.7787 13.9639 55.2143 13.2528 55.2143 11.9728C55.2143 10.835 56.4943 9.6972 59.3387 9.6972C61.7565 9.6972 63.4631 10.1239 64.7431 10.6928L65.4543 10.9772L66.592 5.43053Z" fill="#3C58BF"/>
<path id="Vector_4" d="M66.592 5.43053C65.1698 4.86164 62.8943 4.29276 60.0498 4.29276C52.9387 4.29276 49.0987 7.84831 49.0987 12.9683C49.0987 16.8083 51.3743 18.7994 54.2187 20.0794C57.0631 21.3594 57.9165 22.2128 57.9165 23.3505C57.9165 25.0572 55.6409 25.9105 53.6498 25.9105C50.8054 25.9105 49.2409 25.4839 46.8231 24.4883L45.8276 24.0616L44.832 29.8928C46.5387 30.6039 49.6676 31.315 52.9387 31.315C60.4765 31.315 65.4543 27.7594 65.4543 22.355C65.4543 19.3683 63.6054 17.0928 59.3387 15.2439C56.7787 13.9639 55.2143 13.2528 55.2143 11.9728C55.2143 10.835 56.4943 9.6972 59.3387 9.6972C61.7565 9.6972 63.4631 10.1239 64.7431 10.6928L65.4543 10.9772L66.592 5.43053Z" fill="#293688"/>
<path id="Vector_5" d="M78.8234 5.14609C77.1168 5.14609 75.8368 5.28831 75.1256 6.99498L64.459 30.7461H72.139L73.5612 26.4794H82.6634L83.5168 30.7461H90.3434L84.3701 5.14609H78.8234V5.14609ZM75.5523 22.2128C75.979 20.9328 78.3968 14.675 78.3968 14.675C78.3968 14.675 78.9656 13.1105 79.3923 12.115L79.819 14.5328C79.819 14.5328 81.2412 20.9328 81.5256 22.355H75.5523V22.2128Z" fill="#3C58BF"/>
<path id="Vector_6" d="M80.5301 5.14609C78.8234 5.14609 77.5434 5.28831 76.8323 6.99498L64.459 30.7461H72.139L73.5612 26.4794H82.6634L83.5168 30.7461H90.3434L84.3701 5.14609H80.5301V5.14609ZM75.5523 22.2128C76.1212 20.7905 78.3968 14.675 78.3968 14.675C78.3968 14.675 78.9656 13.1105 79.3923 12.115L79.819 14.5328C79.819 14.5328 81.2412 20.9328 81.5256 22.355H75.5523V22.2128Z" fill="#293688"/>
<path id="Vector_7" d="M20.5124 23.0661L19.8013 19.3684C18.5213 15.1017 14.3968 10.4084 9.8457 8.13281L16.2457 30.8884H23.9257L35.4457 5.28836H27.7657L20.5124 23.0661Z" fill="#3C58BF"/>
<path id="Vector_8" d="M20.5124 23.0661L19.8013 19.3684C18.5213 15.1017 14.3968 10.4084 9.8457 8.13281L16.2457 30.8884H23.9257L35.4457 5.28836H29.1879L20.5124 23.0661Z" fill="#293688"/>
<path id="Vector_9" d="M0.743164 5.14609L2.02316 5.43053C11.1254 7.56387 17.3832 12.9683 19.8009 19.3683L17.2409 7.27942C16.8143 5.57275 15.5343 5.14609 13.9698 5.14609H0.743164V5.14609Z" fill="#FFBC00"/>
<path id="Vector_10" d="M0.743164 5.14609C9.84539 7.27942 17.3832 12.8261 19.8009 19.2261L17.3832 9.12831C16.9565 7.42164 15.5343 6.42609 13.9698 6.42609L0.743164 5.14609Z" fill="#F7981D"/>
<path id="Vector_11" d="M0.743164 5.14609C9.84539 7.27942 17.3832 12.8261 19.8009 19.2261L18.0943 13.6794C17.6676 11.9728 17.0987 10.2661 15.1076 9.55498L0.743164 5.14609Z" fill="#ED7C00"/>
<g id="Group">
<path id="Vector_12" d="M27.6229 22.2127L22.7873 17.3772L20.5117 22.7816L19.9429 19.2261C18.6629 14.9594 14.5384 10.2661 9.9873 7.99051L16.3873 30.7461H24.0673L27.6229 22.2127Z" fill="#051244"/>
<path id="Vector_13" d="M40.849 30.7462L34.7335 24.4884L33.5957 30.7462H40.849Z" fill="#051244"/>
<path id="Vector_14" d="M57.2054 21.9283C57.7743 22.4972 58.0587 22.9239 57.9165 23.4928C57.9165 25.1994 55.6409 26.0528 53.6498 26.0528C50.8054 26.0528 49.2409 25.6261 46.8231 24.6305L45.8276 24.2039L44.832 30.035C46.5387 30.7461 49.6676 31.4572 52.9387 31.4572C57.4898 31.4572 61.1876 30.1772 63.3209 27.9016L57.2054 21.9283Z" fill="#051244"/>
<path id="Vector_15" d="M65.4541 30.7459H72.1385L73.5608 26.4793H82.663L83.5163 30.7459H90.343L87.9252 20.3637L79.3919 12.1148L79.8185 14.3904C79.8185 14.3904 81.2408 20.7904 81.5252 22.2126H75.5519C76.1208 20.7904 78.3963 14.6748 78.3963 14.6748C78.3963 14.6748 78.9652 13.1104 79.3919 12.1148" fill="#051244"/>
</g>
</g>
<defs>
<clipPath id="clip0_17602_164">
<rect width="89.6" height="32" fill="white" transform="translate(0.743164 0.986084)"/>
</clipPath>
</defs>
</svg>
