<svg width="25" height="25" viewBox="0 0 25 25" fill="none" xmlns="http://www.w3.org/2000/svg">
<g id="workplace 1" clip-path="url(#clip0_17672_242)">
<g id="Group">
<path id="Vector" d="M24.4658 7.20276V2.51526C24.4658 1.61062 23.7298 0.874634 22.8252 0.874634H14.3877C13.4831 0.874634 12.7471 1.61062 12.7471 2.51526V7.20276C12.7471 8.1074 13.4831 8.84338 14.3877 8.84338H16.2997L15.9481 10.2496H12.0127L11.8699 7.10699C11.8185 5.97787 10.8929 5.09338 9.76268 5.09338H5.88776C4.75751 5.09338 3.83191 5.97787 3.78054 7.10699L3.63771 10.2496H1.16895C0.780633 10.2496 0.46582 10.5644 0.46582 10.9528V23.1403C0.46582 23.5286 0.780633 23.8434 1.16895 23.8434C1.55726 23.8434 1.87207 23.5286 1.87207 23.1403V14.4684H3.47004C3.52123 15.0472 3.76418 15.5869 4.17345 16.0152C4.5896 16.4506 5.12857 16.7196 5.71587 16.7917V17.984C5.71587 18.8091 6.32815 19.4935 7.12212 19.6076V21.2974L4.35082 22.0892C4.0489 22.1754 3.84082 22.4513 3.84082 22.7653V24.1715C3.84082 24.5598 4.15563 24.8746 4.54395 24.8746C4.93226 24.8746 5.24707 24.5598 5.24707 24.1715V23.2956L7.12207 22.7599V23.7028C7.12207 24.0911 7.43688 24.4059 7.8252 24.4059C8.21351 24.4059 8.52832 24.0911 8.52832 23.7028V22.7599L10.4033 23.2957V24.1715C10.4033 24.5598 10.7181 24.8746 11.1064 24.8746C11.4948 24.8746 11.8096 24.5598 11.8096 24.1715V22.7653C11.8096 22.4513 11.6015 22.1754 11.2996 22.0892L8.52832 21.2974V19.6077C9.32229 19.4936 9.93457 18.8091 9.93457 17.9841V16.7918C10.5219 16.7196 11.0608 16.4507 11.477 16.0152C11.8862 15.587 12.1292 15.0473 12.1804 14.4684H13.6846V23.1403C13.6846 23.5286 13.9994 23.8434 14.3877 23.8434C14.776 23.8434 15.0908 23.5286 15.0908 23.1403V21.0309H23.0596V23.1403C23.0596 23.5286 23.3744 23.8434 23.7627 23.8434C24.151 23.8434 24.4658 23.5286 24.4658 23.1403V10.9528C24.4658 10.5644 24.151 10.2496 23.7627 10.2496H21.2648L20.9132 8.84338H22.8252C23.7298 8.84338 24.4658 8.1074 24.4658 7.20276ZM3.50984 13.0621H1.87207V11.6559H3.57377L3.50984 13.0621ZM8.52832 17.984C8.52832 18.1132 8.42318 18.2184 8.29395 18.2184H7.35645C7.22721 18.2184 7.12207 18.1132 7.12207 17.984V16.8121H8.52832V17.984ZM10.4603 15.0436C10.2371 15.2772 9.93616 15.4059 9.61306 15.4059H6.03738C5.71427 15.4059 5.41338 15.2772 5.19016 15.0436C4.9669 14.81 4.85205 14.5035 4.86673 14.1808L5.18534 7.17079C5.20245 6.79448 5.51098 6.49963 5.88771 6.49963H9.76263C10.1394 6.49963 10.4479 6.79448 10.4651 7.17084L10.7837 14.1808C10.7984 14.5036 10.6835 14.81 10.4603 15.0436ZM23.0596 19.6246H15.0908V14.4684H23.0596V19.6246ZM23.0596 11.6559V13.0621H12.1406L12.0766 11.6559H23.0596ZM17.3976 10.2496L17.7491 8.84338H19.4637L19.8153 10.2496H17.3976ZM14.3877 7.43713C14.2585 7.43713 14.1533 7.33199 14.1533 7.20276V2.51526C14.1533 2.38602 14.2585 2.28088 14.3877 2.28088H22.8252C22.9544 2.28088 23.0596 2.38602 23.0596 2.51526V7.20276C23.0596 7.33199 22.9544 7.43713 22.8252 7.43713H14.3877Z" fill="white"/>
<path id="Vector_2" d="M17.6689 17.2809H20.4814C20.8698 17.2809 21.1846 16.9661 21.1846 16.5778C21.1846 16.1894 20.8698 15.8746 20.4814 15.8746H17.6689C17.2806 15.8746 16.9658 16.1894 16.9658 16.5778C16.9658 16.9661 17.2806 17.2809 17.6689 17.2809Z" fill="white"/>
</g>
</g>
<defs>
<clipPath id="clip0_17672_242">
<rect width="24" height="24" fill="white" transform="translate(0.46582 0.874634)"/>
</clipPath>
</defs>
</svg>
