<svg width="20" height="21" viewBox="0 0 20 21" fill="none" xmlns="http://www.w3.org/2000/svg">
<g id="youtube 1" clip-path="url(#clip0_17700_373)">
<path id="Vector" d="M10.001 20.9253C15.5239 20.9253 20.001 16.4482 20.001 10.9253C20.001 5.40245 15.5239 0.925293 10.001 0.925293C4.47814 0.925293 0.000976562 5.40245 0.000976562 10.9253C0.000976562 16.4482 4.47814 20.9253 10.001 20.9253Z" fill="white"/>
<path id="Vector_2" d="M17.0718 3.85327C20.977 7.75886 20.9774 14.0908 17.0718 17.9963C13.1665 21.9016 6.8343 21.9018 2.92871 17.9963L17.0718 3.85327Z" fill="white"/>
<path id="Vector_3" d="M19.8008 12.9279L14.8515 7.97876L9.01425 8.64337L5.4834 14.1097L12.0811 20.7072C15.9601 19.8866 19.0097 16.8182 19.8008 12.9279Z" fill="white"/>
<path id="Vector_4" d="M15.2348 8.99531C15.2348 8.15701 14.5557 7.47754 13.7178 7.47754H6.60066C5.76299 7.47754 5.08398 8.15717 5.08398 8.99531V13.0653C5.08398 13.9036 5.76311 14.583 6.60066 14.583H13.7177C14.5557 14.583 15.2347 13.9034 15.2347 13.0653V8.99531H15.2348ZM9.14398 12.7473V8.92458L12.0429 10.836L9.14398 12.7473Z" fill="#305F64"/>
</g>
<defs>
<clipPath id="clip0_17700_373">
<rect width="20" height="20" fill="white" transform="translate(0.000976562 0.925293)"/>
</clipPath>
</defs>
</svg>
